<svg width="42" height="42" viewBox="0 0 42 42" fill="none" xmlns="http://www.w3.org/2000/svg">
<path d="M35.175 17.8508C35.175 28.8758 21 38.3258 21 38.3258C21 38.3258 6.82495 28.8758 6.82495 17.8508C6.82495 14.0913 8.31838 10.4859 10.9767 7.82754C13.635 5.16921 17.2405 3.67578 21 3.67578C24.7594 3.67578 28.3649 5.16921 31.0232 7.82754C33.6815 10.4859 35.175 14.0913 35.175 17.8508Z" fill="#21A567" stroke="#21A567" stroke-width="1.5" stroke-linecap="round" stroke-linejoin="round"/>
<path d="M20.9999 22.575C23.6094 22.575 25.7249 20.4595 25.7249 17.85C25.7249 15.2405 23.6094 13.125 20.9999 13.125C18.3904 13.125 16.2749 15.2405 16.2749 17.85C16.2749 20.4595 18.3904 22.575 20.9999 22.575Z" fill="white" stroke="white" stroke-width="1.5" stroke-linecap="round" stroke-linejoin="round"/>
</svg>
