<svg width="151" height="22" viewBox="0 0 151 22" fill="none" xmlns="http://www.w3.org/2000/svg">
<path d="M1.35227 16V5.81818H4.63849C5.36103 5.81818 5.96425 5.95739 6.44815 6.2358C6.93537 6.51089 7.30161 6.88542 7.54688 7.35938C7.79545 7.83333 7.91974 8.36695 7.91974 8.96023C7.91974 9.5535 7.79711 10.0888 7.55185 10.5661C7.30658 11.04 6.942 11.4162 6.4581 11.6946C5.9742 11.9697 5.37263 12.1072 4.65341 12.1072H2.06818V11.272H4.62855C5.16217 11.272 5.60464 11.1726 5.95597 10.9737C6.30729 10.7715 6.56913 10.4964 6.74148 10.1484C6.91714 9.80043 7.00497 9.40436 7.00497 8.96023C7.00497 8.5161 6.91714 8.12003 6.74148 7.77202C6.56913 7.42401 6.30563 7.15057 5.95099 6.9517C5.59967 6.75284 5.15388 6.65341 4.61364 6.65341H2.28196V16H1.35227ZM18.6996 10.9091C18.6996 11.9697 18.5107 12.8928 18.1328 13.6783C17.755 14.4605 17.2346 15.067 16.5717 15.4979C15.9122 15.9254 15.1532 16.1392 14.2947 16.1392C13.4363 16.1392 12.6757 15.9254 12.0128 15.4979C11.3532 15.067 10.8345 14.4605 10.4567 13.6783C10.0821 12.8928 9.89489 11.9697 9.89489 10.9091C9.89489 9.84848 10.0821 8.92708 10.4567 8.14489C10.8345 7.35937 11.3549 6.75284 12.0178 6.32528C12.6806 5.89441 13.4396 5.67898 14.2947 5.67898C15.1532 5.67898 15.9122 5.89441 16.5717 6.32528C17.2346 6.75284 17.755 7.35937 18.1328 8.14489C18.5107 8.92708 18.6996 9.84848 18.6996 10.9091ZM17.7947 10.9091C17.7947 9.99763 17.6423 9.21709 17.3374 8.56747C17.0324 7.91454 16.6165 7.41572 16.0895 7.07102C15.5625 6.72633 14.9643 6.55398 14.2947 6.55398C13.6286 6.55398 13.032 6.72633 12.505 7.07102C11.978 7.41572 11.5604 7.91288 11.2521 8.5625C10.9472 9.21212 10.7947 9.99432 10.7947 10.9091C10.7947 11.8205 10.9472 12.6011 11.2521 13.2507C11.5571 13.9003 11.973 14.3991 12.5 14.7472C13.027 15.0919 13.6252 15.2642 14.2947 15.2642C14.9643 15.2642 15.5625 15.0919 16.0895 14.7472C16.6198 14.4025 17.0374 13.9053 17.3423 13.2557C17.6473 12.6027 17.7981 11.8205 17.7947 10.9091ZM22.9679 16L20.1788 5.81818H21.1234L23.4302 14.5732H23.5098L25.8166 5.81818H26.8904L29.1973 14.5732H29.2768L31.5836 5.81818H32.5332L29.7441 16H28.7498L26.3883 7.36435H26.3237L23.9622 16H22.9679ZM34.4636 16V5.81818H40.3699V6.65341H35.3933V10.4865H40.0566V11.3217H35.3933V15.1648H40.4693V16H34.4636ZM43.0261 16V5.81818H46.3123C47.0349 5.81818 47.6381 5.9491 48.122 6.21094C48.6092 6.46946 48.9754 6.82907 49.2207 7.28977C49.4693 7.74716 49.5936 8.27249 49.5936 8.86577C49.5936 9.45904 49.4693 9.98272 49.2207 10.4368C48.9754 10.8909 48.6109 11.2455 48.127 11.5007C47.6431 11.7559 47.0431 11.8835 46.3272 11.8835H43.5282V11.0334H46.3024C46.8327 11.0334 47.2735 10.9455 47.6248 10.7699C47.9795 10.5942 48.243 10.344 48.4153 10.0192C48.591 9.69437 48.6788 9.3099 48.6788 8.86577C48.6788 8.42164 48.591 8.03385 48.4153 7.70241C48.2396 7.36766 47.9745 7.10914 47.6199 6.92685C47.2685 6.74455 46.8244 6.65341 46.2875 6.65341H43.9558V16H43.0261ZM47.5154 11.4062L50.0211 16H48.9473L46.4664 11.4062H47.5154ZM52.1081 16V5.81818H58.0144V6.65341H53.0378V10.4865H57.7012V11.3217H53.0378V15.1648H58.1138V16H52.1081ZM63.6536 16H60.6706V5.81818H63.8326C64.8037 5.81818 65.6339 6.02036 66.3233 6.42472C67.016 6.82907 67.5463 7.40909 67.9142 8.16477C68.2821 8.92045 68.4661 9.82694 68.4661 10.8842C68.4661 11.9515 68.2772 12.8679 67.8993 13.6335C67.5248 14.3958 66.9779 14.9808 66.2587 15.3885C65.5428 15.7962 64.6744 16 63.6536 16ZM61.6003 15.1648H63.5989C64.4739 15.1648 65.2064 14.9924 65.7963 14.6477C66.3863 14.303 66.8288 13.8108 67.1238 13.1712C67.4187 12.5315 67.5662 11.7692 67.5662 10.8842C67.5629 10.0059 67.4171 9.25024 67.1287 8.61719C66.8437 7.98414 66.4194 7.49858 65.856 7.16051C65.2959 6.82244 64.6032 6.65341 63.7779 6.65341H61.6003V15.1648ZM75.157 16V5.81818H78.5923C79.2552 5.81818 79.8071 5.93419 80.2479 6.16619C80.692 6.3982 81.0251 6.71473 81.2472 7.11577C81.4692 7.51681 81.5803 7.97254 81.5803 8.48295C81.5803 8.9072 81.509 9.27012 81.3665 9.57173C81.224 9.87334 81.0301 10.117 80.7848 10.3026C80.5395 10.4882 80.2661 10.6224 79.9645 10.7053V10.7848C80.2926 10.808 80.6108 10.924 80.919 11.1328C81.2273 11.3383 81.4808 11.6267 81.6797 11.9979C81.8786 12.3691 81.978 12.8132 81.978 13.3303C81.978 13.844 81.8636 14.303 81.6349 14.7074C81.4062 15.1084 81.0549 15.425 80.581 15.657C80.1103 15.8857 79.5104 16 78.7812 16H75.157ZM76.0866 15.1648H78.7812C79.5668 15.1648 80.1468 14.9908 80.5213 14.6428C80.8991 14.2947 81.0881 13.8572 81.0881 13.3303C81.0881 12.9425 80.9936 12.5911 80.8047 12.2763C80.6191 11.9581 80.3556 11.7062 80.0142 11.5206C79.6761 11.335 79.2784 11.2422 78.821 11.2422H76.0866V15.1648ZM76.0866 10.4169H78.6768C79.0779 10.4169 79.4292 10.334 79.7308 10.1683C80.0324 10.0026 80.2678 9.77391 80.4368 9.48224C80.6058 9.19058 80.6903 8.85748 80.6903 8.48295C80.6903 7.94271 80.5147 7.50355 80.1634 7.16548C79.812 6.8241 79.2884 6.65341 78.5923 6.65341H76.0866V10.4169ZM83.5169 5.81818H84.5907L87.6085 10.6506H87.698L90.7157 5.81818H91.7896L88.1156 11.5902V16H87.1909V11.5902L83.5169 5.81818Z" fill="#6F6F6F"/>
<g clip-path="url(#clip0_3700_32467)">
<path d="M95.5005 7.12202C95.406 6.91176 95.3545 6.68522 95.3489 6.45534C95.3433 6.22546 95.3836 5.99674 95.4677 5.78224C95.6375 5.34903 95.9749 5.00003 96.4057 4.81202C96.8365 4.62401 97.3254 4.61239 97.765 4.77972C98.2045 4.94704 98.5585 5.2796 98.7493 5.70424L102.779 14.6631C102.97 15.0878 102.982 15.5697 102.812 16.0029C102.642 16.4361 102.305 16.7851 101.874 16.9731C101.443 17.1611 100.954 17.1728 100.515 17.0054C100.075 16.8381 99.7212 16.5056 99.5305 16.0809L95.5005 7.12202Z" fill="#27AAE1" fill-opacity="0.75"/>
<path d="M103.561 5.70424C103.751 5.2796 104.105 4.94704 104.545 4.77972C104.984 4.61239 105.473 4.62401 105.904 4.81202C106.335 5.00003 106.672 5.34903 106.842 5.78224C107.012 6.21545 107 6.69738 106.809 7.12202L102.779 16.0809C102.589 16.5056 102.234 16.8381 101.795 17.0054C101.355 17.1728 100.867 17.1611 100.436 16.9731C100.005 16.7851 99.6675 16.4361 99.4977 16.0029C99.328 15.5697 99.3398 15.0878 99.5305 14.6631L103.561 5.70424Z" fill="#39B54A" fill-opacity="0.75"/>
<path d="M116.63 4.92149C116.89 4.92149 117.139 5.02322 117.323 5.2043C117.506 5.38537 117.61 5.63097 117.61 5.88705C117.61 6.14313 117.506 6.38872 117.323 6.5698C117.139 6.75088 116.89 6.8526 116.63 6.8526H111.162V9.8226H116.171C116.431 9.8226 116.68 9.92433 116.864 10.1054C117.048 10.2865 117.151 10.5321 117.151 10.7882C117.151 11.0442 117.048 11.2898 116.864 11.4709C116.68 11.652 116.431 11.7537 116.171 11.7537H111.162V14.7237H116.828C117.088 14.7237 117.337 14.8254 117.521 15.0065C117.705 15.1876 117.808 15.4332 117.808 15.6893C117.808 15.9454 117.705 16.1909 117.521 16.372C117.337 16.5531 117.088 16.6548 116.828 16.6548H109.984C109.671 16.6548 109.372 16.5325 109.151 16.3147C108.93 16.097 108.806 15.8017 108.806 15.4937V6.0826C108.806 5.77466 108.93 5.47933 109.151 5.26157C109.372 5.04382 109.671 4.92149 109.984 4.92149H116.63ZM120.065 6.0826C120.065 5.77466 120.189 5.47933 120.41 5.26157C120.631 5.04382 120.93 4.92149 121.243 4.92149C121.555 4.92149 121.855 5.04382 122.076 5.26157C122.297 5.47933 122.421 5.77466 122.421 6.0826V14.7237H127.43C127.69 14.7237 127.939 14.8254 128.123 15.0065C128.307 15.1876 128.41 15.4332 128.41 15.6893C128.41 15.9454 128.307 16.1909 128.123 16.372C127.939 16.5531 127.69 16.6548 127.43 16.6548H121.243C120.93 16.6548 120.631 16.5325 120.41 16.3147C120.189 16.097 120.065 15.8017 120.065 15.4937V6.0826ZM134.709 4.83594C138.429 4.83594 140.475 7.12149 140.475 10.7882C140.475 14.4548 138.429 16.7404 134.709 16.7404C130.989 16.7404 128.943 14.4548 128.943 10.7882C128.943 7.12149 130.989 4.83594 134.709 4.83594ZM134.709 6.68149C132.477 6.68149 131.349 8.58816 131.349 10.7882C131.349 12.9882 132.477 14.8948 134.709 14.8948C136.941 14.8948 138.07 12.9882 138.07 10.7882C138.07 8.58816 136.941 6.68149 134.709 6.68149ZM142.022 6.76216C141.848 6.49246 141.791 6.16595 141.862 5.85445C141.933 5.54296 142.126 5.27199 142.4 5.10116C142.673 4.93033 143.005 4.87363 143.321 4.94354C143.637 5.01345 143.912 5.20424 144.085 5.47394L146.116 8.45005L148.147 5.47394C148.32 5.20424 148.595 5.01345 148.911 4.94354C149.227 4.87363 149.559 4.93033 149.832 5.10116C150.106 5.27199 150.299 5.54296 150.37 5.85445C150.441 6.16595 150.384 6.49246 150.211 6.76216L147.592 10.606L150.459 14.8142C150.632 15.0839 150.689 15.4104 150.618 15.7219C150.547 16.0334 150.354 16.3043 150.08 16.4752C149.807 16.646 149.475 16.7027 149.159 16.6328C148.843 16.5629 148.568 16.3721 148.395 16.1024L146.116 12.7633L143.837 16.1024C143.664 16.3721 143.389 16.5629 143.073 16.6328C142.757 16.7027 142.425 16.646 142.152 16.4752C141.878 16.3043 141.685 16.0334 141.614 15.7219C141.543 15.4104 141.6 15.0839 141.774 14.8142L144.64 10.606L142.022 6.76216Z" fill="#39B54A"/>
</g>
<defs>
<clipPath id="clip0_3700_32467">
<rect width="56" height="13" fill="white" transform="translate(95 4.5)"/>
</clipPath>
</defs>
</svg>
