<svg width="24" height="24" viewBox="0 0 24 24" fill="none" xmlns="http://www.w3.org/2000/svg">
<path d="M20.0999 10.1996C20.0999 16.4996 11.9999 21.8996 11.9999 21.8996C11.9999 21.8996 3.8999 16.4996 3.8999 10.1996C3.8999 8.05136 4.75329 5.99109 6.27234 4.47204C7.79138 2.953 9.85165 2.09961 11.9999 2.09961C14.1482 2.09961 16.2084 2.953 17.7275 4.47204C19.2465 5.99109 20.0999 8.05136 20.0999 10.1996Z" stroke="#1A1C19" stroke-width="1.5" stroke-linecap="round" stroke-linejoin="round"/>
<path d="M12 12.9C13.4912 12.9 14.7 11.6912 14.7 10.2C14.7 8.70883 13.4912 7.5 12 7.5C10.5089 7.5 9.30005 8.70883 9.30005 10.2C9.30005 11.6912 10.5089 12.9 12 12.9Z" stroke="#1A1C19" stroke-width="1.5" stroke-linecap="round" stroke-linejoin="round"/>
</svg>
