<svg width="56" height="14" viewBox="0 0 56 14" fill="none" xmlns="http://www.w3.org/2000/svg">
<g clip-path="url(#clip0_3700_32470)">
<path d="M0.500481 3.12202C0.406034 2.91176 0.354529 2.68522 0.348905 2.45534C0.343281 2.22546 0.38365 1.99674 0.467705 1.78224C0.637463 1.34903 0.974863 1.00003 1.40568 0.812021C1.8365 0.624012 2.32544 0.612391 2.76495 0.779716C3.20446 0.94704 3.55854 1.2796 3.74928 1.70424L7.77928 10.6631C7.97002 11.0878 7.98181 11.5697 7.81206 12.0029C7.6423 12.4361 7.3049 12.7851 6.87408 12.9731C6.44326 13.1611 5.95432 13.1728 5.51481 13.0054C5.0753 12.8381 4.72122 12.5056 4.53048 12.0809L0.500481 3.12202Z" fill="#27AAE1" fill-opacity="0.75"/>
<path d="M8.56051 1.70424C8.75125 1.2796 9.10533 0.94704 9.54484 0.779716C9.98435 0.612391 10.4733 0.624012 10.9041 0.812021C11.3349 1.00003 11.6723 1.34903 11.8421 1.78224C12.0118 2.21545 12.0001 2.69738 11.8093 3.12202L7.77931 12.0809C7.58857 12.5056 7.23449 12.8381 6.79498 13.0054C6.35547 13.1728 5.86653 13.1611 5.43571 12.9731C5.00489 12.7851 4.66749 12.4361 4.49773 12.0029C4.32798 11.5697 4.33977 11.0878 4.53051 10.6631L8.56051 1.70424Z" fill="#39B54A" fill-opacity="0.75"/>
<path d="M21.6301 0.921493C21.8899 0.921493 22.139 1.02322 22.3227 1.2043C22.5065 1.38537 22.6097 1.63097 22.6097 1.88705C22.6097 2.14313 22.5065 2.38872 22.3227 2.5698C22.139 2.75088 21.8899 2.8526 21.6301 2.8526H16.1617V5.8226H21.1713C21.4311 5.8226 21.6802 5.92433 21.8639 6.10541C22.0477 6.28649 22.1509 6.53208 22.1509 6.78816C22.1509 7.04424 22.0477 7.28983 21.8639 7.47091C21.6802 7.65199 21.4311 7.75372 21.1713 7.75372H16.1617V10.7237H21.8285C22.0883 10.7237 22.3374 10.8254 22.5211 11.0065C22.7049 11.1876 22.8081 11.4332 22.8081 11.6893C22.8081 11.9454 22.7049 12.1909 22.5211 12.372C22.3374 12.5531 22.0883 12.6548 21.8285 12.6548H14.9837C14.6712 12.6548 14.3716 12.5325 14.1507 12.3147C13.9298 12.097 13.8057 11.8017 13.8057 11.4937V2.0826C13.8057 1.77466 13.9298 1.47933 14.1507 1.26157C14.3716 1.04382 14.6712 0.921493 14.9837 0.921493H21.6301ZM25.0649 2.0826C25.0649 1.77466 25.189 1.47933 25.4099 1.26157C25.6308 1.04382 25.9304 0.921493 26.2429 0.921493C26.5553 0.921493 26.8549 1.04382 27.0758 1.26157C27.2968 1.47933 27.4209 1.77466 27.4209 2.0826V10.7237H32.4305C32.6903 10.7237 32.9394 10.8254 33.1231 11.0065C33.3069 11.1876 33.4101 11.4332 33.4101 11.6893C33.4101 11.9454 33.3069 12.1909 33.1231 12.372C32.9394 12.5531 32.6903 12.6548 32.4305 12.6548H26.2429C25.9304 12.6548 25.6308 12.5325 25.4099 12.3147C25.189 12.097 25.0649 11.8017 25.0649 11.4937V2.0826ZM39.7093 0.835938C43.4293 0.835938 45.4753 3.12149 45.4753 6.78816C45.4753 10.4548 43.4293 12.7404 39.7093 12.7404C35.9893 12.7404 33.9433 10.4548 33.9433 6.78816C33.9433 3.12149 35.9893 0.835938 39.7093 0.835938ZM39.7093 2.68149C37.4773 2.68149 36.3489 4.58816 36.3489 6.78816C36.3489 8.98816 37.4773 10.8948 39.7093 10.8948C41.9413 10.8948 43.0697 8.98816 43.0697 6.78816C43.0697 4.58816 41.9413 2.68149 39.7093 2.68149ZM47.0215 2.76216C46.8482 2.49246 46.7907 2.16595 46.8616 1.85445C46.9326 1.54296 47.1261 1.27199 47.3997 1.10116C47.6734 0.930331 48.0046 0.873635 48.3207 0.943544C48.6367 1.01345 48.9116 1.20424 49.0849 1.47394L51.116 4.45005L53.1471 1.47394C53.3205 1.20424 53.5954 1.01345 53.9114 0.943544C54.2274 0.873635 54.5587 0.930331 54.8323 1.10116C55.1059 1.27199 55.2995 1.54296 55.3704 1.85445C55.4413 2.16595 55.3838 2.49246 55.2105 2.76216L52.5916 6.60605L55.4585 10.8142C55.6318 11.0839 55.6893 11.4104 55.6184 11.7219C55.5475 12.0334 55.3539 12.3043 55.0803 12.4752C54.8067 12.646 54.4754 12.7027 54.1594 12.6328C53.8434 12.5629 53.5685 12.3721 53.3951 12.1024L51.116 8.76327L48.8369 12.1024C48.6636 12.3721 48.3887 12.5629 48.0727 12.6328C47.7566 12.7027 47.4254 12.646 47.1517 12.4752C46.8781 12.3043 46.6846 12.0334 46.6136 11.7219C46.5427 11.4104 46.6002 11.0839 46.7735 10.8142L49.6404 6.60605L47.0215 2.76216Z" fill="#39B54A"/>
</g>
<defs>
<clipPath id="clip0_3700_32470">
<rect width="56" height="13" fill="white" transform="translate(0 0.5)"/>
</clipPath>
</defs>
</svg>
